<svg xmlns="http://www.w3.org/2000/svg" role="veena" height="48" width="48" fill="#ffffff" viewBox="0 0 1024 1024">
	<g>
		<g>
			<path
				d="M280.19,884.09c-27.26,0-57.04-8.18-85.34-23.63c-32.1-17.52-59.8-42.83-78-71.27l16.84-10.78    c34.38,53.71,103.96,91.06,158.4,85.04c56.92-6.29,107.63-49.15,123.32-104.21c10.55-37.06,5.85-77.96-0.14-113.08l-0.13-0.78    c-4.59-26.85-9.79-57.29,5.57-82.58c0.52-0.85,1.15-1.62,1.9-2.28c86.06-76.64,128.36-116,186.9-170.48    c27.16-25.28,57.95-53.92,98.02-90.85l13.55,14.71c-40.04,36.9-70.8,65.53-97.95,90.79C564.76,459,522.51,498.31,437.08,574.41    c-10.58,18.77-6.34,43.58-2.23,67.6l0.13,0.78c6.37,37.33,11.31,81.01-0.34,121.92c-17.86,62.67-75.58,111.45-140.36,118.61    C289.69,883.83,284.98,884.09,280.19,884.09z" />
		</g>
		<g>
			<rect x="180.59" y="667.57" transform="matrix(0.8283 -0.5603 0.5603 0.8283 -357.5727 226.3977)" width="20" height="58.05" />
		</g>
		<g>
			<path 
				d="M162.61,805.75c-2.77,0-5.51-0.12-8.22-0.36c-15.07-1.35-27.15-6.15-35.91-14.26c-10.43-9.65-16.36-24.69-16.28-41.26    c0.06-13.75,4.61-32.6,9.09-45.18c16.72-47.01,34.52-75.04,68.03-107.12c37.15-35.53,79.94-60.15,130.76-75.21    c84.81-70.05,139.5-113.83,192.41-156.18c53.53-42.85,104.1-83.32,183.36-148.81c44.7-36.93,89.26-70.09,142.73-70.09    c0.1,0,0.19,0,0.28,0c23.06,0.04,44.86,6.93,61.38,19.41c18.83,14.2,30.61,35.76,31.49,57.67c1.28,31.91-14.62,57.82-28.62,76.83    c-9.58,13-25.85,27.14-42.81,27.83c-14.62,0.6-29.02-9.23-35.81-24.46c-0.64-1.44-1.23-3.02-1.75-4.71    c-5.59-17.87-1.32-37.97,11.15-52.44c2.4-2.78,4.91-5.76,6.88-8.86c3.58-5.63,4.79-14.47,0.94-16.99    c-4.54-2.97-13.81,3.03-20.98,9.64c-3.05,2.82-6.05,5.59-9.04,8.34l-13.53-14.73c2.98-2.74,5.96-5.49,8.93-8.24    c0,0,0.08-0.07,0.08-0.07c21.73-20.04,36.73-17.4,45.49-11.67c14.48,9.49,13.86,30.46,4.98,44.44c-2.69,4.24-5.86,8.01-8.62,11.2    c-7.99,9.27-10.75,22.08-7.2,33.43c0.3,0.96,0.61,1.8,0.93,2.52c2.89,6.48,9.57,12.87,16.72,12.61    c8.81-0.36,20.51-10.19,27.53-19.71c17.91-24.32,25.54-44.11,24.74-64.16c-0.64-15.98-9.45-31.87-23.55-42.5    c-13.08-9.88-30.61-15.34-49.37-15.37c-0.08,0-0.16,0-0.23,0c-46.84,0-88.22,30.98-130,65.51    c-79.38,65.59-130.01,106.11-183.6,149.01c-53.18,42.56-108.16,86.58-193.75,157.29c-1.05,0.87-2.27,1.51-3.58,1.89    c-48.53,14.08-89.26,37.32-124.51,71.04c-30.98,29.65-47.47,55.65-63.01,99.37c-3.79,10.63-7.88,27.23-7.93,38.57    c-0.05,10.99,3.54,20.64,9.87,26.49c6.78,6.27,16.85,8.37,24.11,9.02c29.49,2.63,64.84-12.75,94.56-41.15    c18.7-17.87,34.39-38.49,46.64-61.27c7.79-14.49,14.31-30.19,20.62-45.36c4.91-11.81,9.98-24.01,15.7-35.84    c13.89-28.66,31.62-44.81,61-71.56c72.69-65.45,111.65-101.05,156.75-142.26c28.81-26.32,61.45-56.15,107.62-98.08l13.45,14.8    c-46.14,41.91-78.78,71.73-107.57,98.04c-45.14,41.24-84.12,76.86-156.82,142.33c-28.5,25.95-44.22,40.26-56.43,65.45    c-5.47,11.3-10.43,23.25-15.23,34.79c-6.49,15.63-13.21,31.79-21.47,47.16c-13.25,24.64-30.22,46.94-50.44,66.26    C233.33,788.61,195.84,805.75,162.61,805.75z" />
		</g>
		<g>
			<path 
				d="M744.58,292.22l-13.55-14.71c11.51-10.6,23.02-21.21,34.52-31.83l13.57,14.69C767.62,271,756.1,281.62,744.58,292.22z" />
		</g>
		<g>
			<path 
				d="M731.67,569.92c-23.09,0-43.39-7.82-58.28-22.71c-29.7-29.7-30.24-80.62-2.03-125.77c-3.64-5.23-7.05-11.52-8.45-18.77    c-2.17-11.18,1.44-22.44,9.89-30.89c8.44-8.44,19.7-12.05,30.9-9.9c7.25,1.4,13.55,4.81,18.78,8.45    c45.14-28.21,96.06-27.66,125.76,2.04c18.24,18.24,25.88,44.62,21.51,74.28c-4.21,28.57-19.18,56.95-42.15,79.92    c-22.97,22.97-51.35,37.94-79.92,42.14C742.22,569.52,736.87,569.92,731.67,569.92z M697.36,381.27c-3.75,0-7.38,1.6-10.43,4.64    c-3.73,3.73-5.29,8.33-4.39,12.95c1.13,5.86,5.3,11.54,8.8,15.83c2.82,3.45,3.01,8.35,0.48,12.01    c-26.63,38.52-28.39,82.25-4.29,106.36c13.66,13.66,33.98,19.29,57.23,15.86c24.34-3.59,48.74-16.55,68.69-36.5    c19.95-19.95,32.92-44.35,36.5-68.69c3.42-23.25-2.21-43.57-15.87-57.22c-24.1-24.1-67.84-22.35-106.35,4.28    c-3.66,2.53-8.56,2.34-12.01-0.48c-4.29-3.5-9.97-7.67-15.82-8.8C699.05,381.35,698.21,381.27,697.36,381.27z" />
		</g>
		<g>
			<path 
				d="M756.35,411.51c-6.21,0-12.78-1.7-19.12-5.04c-6.59-3.48-11.94-8.05-17.12-12.47c-1.25-1.07-2.5-2.13-3.76-3.18    c-0.18-0.15-0.28-0.24-0.39-0.33l12.19-15.85c0.34,0.26,0.66,0.53,0.99,0.8c1.3,1.07,2.63,2.21,3.96,3.34    c4.55,3.88,8.84,7.55,13.47,9.99c5.24,2.77,10.67,3.48,14.17,1.86l8.39,18.16C765.2,410.61,760.87,411.51,756.35,411.51z" />
		</g>
		<g>
			<path 
				d="M709.82,468.09l-18.16-8.39c1.62-3.5,0.9-8.93-1.86-14.17c-2.45-4.63-6.13-8.94-10.02-13.51    c-1.12-1.32-2.24-2.63-3.34-3.96c-0.24-0.29-0.51-0.61-0.76-0.94l15.85-12.19c0.09,0.11,0.18,0.22,0.27,0.32    c1.09,1.32,2.15,2.56,3.21,3.8c4.42,5.19,9,10.55,12.49,17.14C713.28,447.16,714.13,458.78,709.82,468.09z" />
		</g>
		<g>
			<rect x="659.52" y="353.11" transform="matrix(0.7071 -0.7071 0.7071 0.7071 -64.1563 581.2298)" width="20" height="29.89" />
		</g>
		<g>
			<path
				d="M261.21,680.8c-3.68,0-6.99-1.27-9.59-3.87c-2-2-6.21-7.7-2.14-17.46c1.73-4.16,4.83-8.6,8.73-12.49    c3.89-3.89,8.33-6.99,12.49-8.73c9.76-4.07,15.46,0.14,17.46,2.14c2,2,6.21,7.7,2.14,17.46c-1.73,4.16-4.83,8.6-8.73,12.49    C274.72,677.21,267.42,680.8,261.21,680.8z" />
		</g>
		<g>
			<path 
				d="M238.38,626.36c-3.68,0-6.99-1.27-9.59-3.87c-2-2-6.21-7.7-2.14-17.46c1.73-4.16,4.83-8.6,8.73-12.49    c3.89-3.89,8.33-6.99,12.49-8.73c9.75-4.07,15.46,0.14,17.46,2.14l0,0h0c0,0,0,0,0,0c2,2,6.21,7.7,2.14,17.46    c-1.73,4.16-4.83,8.6-8.73,12.49C251.89,622.76,244.59,626.36,238.38,626.36z M251.19,600.1L251.19,600.1    C251.19,600.1,251.19,600.1,251.19,600.1S251.19,600.1,251.19,600.1z" />
		</g>
		<g>
			<path 
				d="M679.59,242.29c-6.99,0-13.81-2.54-18.94-7.67c-10.8-10.8-10.11-29.06,1.54-40.71c5.49-5.49,12.62-8.75,20.09-9.18    c7.91-0.44,15.23,2.26,20.61,7.65c10.8,10.8,10.11,29.06-1.54,40.71C695.24,239.19,687.31,242.29,679.59,242.29z M683.92,204.69    c-0.18,0-0.34,0-0.49,0.01c-2.53,0.15-5.12,1.37-7.11,3.36c-3.78,3.78-4.49,9.47-1.54,12.42c2.95,2.95,8.64,2.25,12.42-1.54    s4.49-9.47,1.54-12.42C687.21,204.98,685.22,204.69,683.92,204.69z" />
		</g>
		<g>
			<path 
				d="M741.06,197.51c-6.99,0-13.81-2.54-18.94-7.67c-10.8-10.8-10.11-29.06,1.54-40.71c5.49-5.49,12.62-8.75,20.09-9.18    c7.91-0.45,15.23,2.26,20.61,7.65c10.8,10.8,10.11,29.06-1.54,40.71C756.71,194.41,748.78,197.51,741.06,197.51z M745.39,159.9    c-0.18,0-0.34,0-0.49,0.01c-2.53,0.15-5.12,1.37-7.11,3.36c-3.78,3.78-4.49,9.47-1.54,12.42c2.95,2.95,8.64,2.25,12.42-1.54    c3.78-3.78,4.49-9.47,1.54-12.42C748.68,160.2,746.69,159.9,745.39,159.9z" />
		</g>
		<g>
			<path
				d="M732.6,333.32c-7.35,0-14.61-2.74-20.11-8.24c-4.71-4.71-7.6-11.01-8.15-17.73c-0.71-8.77,2.52-17.44,8.87-23.79    c6.95-6.95,16.77-10.16,26.26-8.56c5.85,0.99,11.12,3.7,15.26,7.84c11.25,11.25,10.93,29.88-0.71,41.53    C748.06,330.33,740.28,333.32,732.6,333.32z M734.62,294.6c-2.63,0-5.27,1.11-7.27,3.11c-2.19,2.19-3.31,5.12-3.08,8.03    c0.12,1.42,0.62,3.47,2.36,5.21c3.45,3.46,9.4,3.14,13.25-0.71c3.85-3.85,4.17-9.79,0.71-13.25c-1.5-1.5-3.24-2.06-4.44-2.26    C735.64,294.64,735.13,294.6,734.62,294.6z" />
		</g>
		<g>
			<path 
				d="M790.68,280.76c-7.35,0-14.61-2.74-20.11-8.24c-5.08-5.08-8-11.9-8.23-19.2c-0.26-8.24,3-16.38,8.95-22.32    c6.5-6.5,15.32-9.71,24.26-8.82c0.18,0.01,0.36,0.03,0.53,0.05c6.42,0.75,12.2,3.53,16.72,8.05c5.52,5.52,8.45,12.94,8.24,20.88    c-0.2,7.75-3.38,15.08-8.95,20.65C806.15,277.77,798.37,280.76,790.68,280.76z M792.67,242.05c-2.64,0-5.23,1.1-7.23,3.1    c-2.06,2.06-3.19,4.81-3.1,7.56c0.05,1.56,0.5,3.8,2.38,5.68c3.45,3.46,9.4,3.14,13.25-0.71c1.93-1.93,3.03-4.43,3.1-7.03    c0.06-2.41-0.79-4.61-2.39-6.22c-1.53-1.53-3.29-2.09-4.6-2.29c-0.1-0.01-0.2-0.02-0.3-0.03    C793.4,242.07,793.03,242.05,792.67,242.05z" />
		</g>
	</g>
</svg>